<?xml version="1.0" encoding="utf-8"?>
<!-- Designed by Vexels.com - 2020 All Rights Reserved - https://vexels.com/terms-and-conditions/  -->
<svg version="1.1" id="Layer_1" xmlns="http://www.w3.org/2000/svg" xmlns:xlink="http://www.w3.org/1999/xlink" x="0px" y="0px"
	 viewBox="0 0 1200 1200" enable-background="new 0 0 1200 1200" xml:space="preserve">
<g>
	<path fill="#F7D7A6" d="M219.797,513.248l223.233,130.105c7.65,4.458,9.363,14.772,3.566,21.465l-69.386,80.104
		c-6.457,7.454-17.29,9.289-25.842,4.377l-226.39-130.045c-5.17-2.97-6.283-9.952-2.292-14.382l80.158-88.977
		C207.155,511.11,214.232,510.005,219.797,513.248z"/>
	<path fill="#F7D7A6" d="M508.963,657.871l83.79,101.833c4.949,6.015,13.534,7.545,20.256,3.611l498.411-291.683
		c6.358-3.721,7.934-12.218,3.332-17.971l-80.761-100.966c-3.609-4.513-9.967-5.725-14.984-2.859L512.372,639.307
		C505.729,643.102,504.102,651.963,508.963,657.871z"/>
	<path fill="#F7D7A6" d="M214.265,707.035v40.102c0,4.074,2.21,7.828,5.772,9.805L457.37,891.307
		c11.7,6.494,21.294,11.178,32.972,4.644l519.995-282.749c4.196-2.348,6.795-6.78,6.795-11.589v-50.256
		c0-1.357-1.476-2.198-2.643-1.507L601.592,794.249c-5.333,3.156-12.179,1.865-15.996-3.017l-100.376-128.4l-5.39-1.609
		L378.503,779.822c-4.669,5.536-12.605,6.991-18.934,3.47l-141.305-78.609C216.47,703.685,214.265,704.982,214.265,707.035z"/>
	<g>
		<path fill="#D3E4ED" d="M1126.424,681.873l-590.466,336.56c-21.796,12.528-48.619,12.472-70.359-0.162L172.426,847.963
			c-25.81-14.993-25.718-52.288,0.162-67.154l25.324-14.414c3.704-2.108,8.469-0.211,9.578,3.904
			c1.907,7.078,6.464,13.55,13.668,17.736l223.266,129.703c16.549,9.613,36.986,9.662,53.584,0.12L1026.7,613.923
			c9.612-5.528,11.141-18.077,4.57-25.824L1126.452,643C1141.424,651.641,1141.41,673.26,1126.424,681.873z"/>
	</g>
	<g>
		<path fill="#F2A661" d="M213.79,482.653l531.984-305.598c3.287-1.888,7.331-1.885,10.615,0.009l262.612,151.469
			c4.718,2.721,4.713,9.532-0.009,12.246L492.334,643.54c-7.054,4.055-15.737,4.036-22.773-0.052l-255.8-148.6
			C209.059,492.158,209.075,485.361,213.79,482.653z"/>
	</g>
	<g>
		<ellipse fill="#31353E" cx="482.209" cy="774.9" rx="3.989" ry="124.686"/>
	</g>
	<g>
		<ellipse fill="#31353E" cx="1027.721" cy="564.305" rx="3.989" ry="24.297"/>
	</g>
	<g>
		<path fill="#31353E" d="M1137.672,464.573c-1.709,1.391-19.037-17.083-56.161-62.722c-37.123-45.639-51.681-66.367-49.972-67.756
			c1.709-1.39,19.038,17.083,56.161,62.723C1124.823,442.456,1139.381,463.183,1137.672,464.573z"/>
	</g>
	<g>
		<path fill="#31353E" d="M749.301,175.028c0.041,2.202-24.947,4.459-83.209,5.553c-58.262,1.095-83.317-0.22-83.359-2.423
			c-0.041-2.203,24.947-4.459,83.209-5.553C724.205,171.511,749.26,172.826,749.301,175.028z"/>
	</g>
	<g>
		<path fill="#31353E" d="M207.803,488.937c0.147,2.197-23.437,5.564-78.63,9.252s-79.015,3.491-79.162,1.293
			c-0.147-2.198,23.437-5.564,78.63-9.253S207.656,486.739,207.803,488.937z"/>
	</g>
	<g>
		<path fill="#31353E" d="M207.803,492.149c1.654,1.455-13.691,21.604-52.543,65.775c-38.853,44.17-56.879,61.96-58.533,60.505
			c-1.654-1.455,13.691-21.604,52.543-65.775C188.122,508.484,206.149,490.694,207.803,492.149z"/>
	</g>
	<g>
		<path fill="#31353E" d="M477.169,651.936c1.654,1.455-13.691,21.604-52.543,65.775c-38.853,44.17-56.879,61.96-58.533,60.506
			c-1.654-1.455,13.691-21.605,52.543-65.775C457.488,668.271,475.515,650.481,477.169,651.936z"/>
	</g>
	<g>
		<path fill="#31353E" d="M1150,334.095c-0.071,2.202-19.737,3.352-65.395,1.875c-45.658-1.478-65.209-3.897-65.137-6.099
			c0.071-2.202,19.738-3.353,65.395-1.875C1130.52,329.474,1150.071,331.893,1150,334.095z"/>
	</g>
	<g>
		<path fill="#31353E" d="M888.84,180.27c-0.071,2.202-19.738,3.352-65.395,1.874c-45.658-1.477-65.209-3.896-65.137-6.098
			c0.071-2.202,19.737-3.353,65.395-1.875C869.36,175.648,888.911,178.067,888.84,180.27z"/>
	</g>
	<g>
		<ellipse fill="#31353E" cx="751.537" cy="303.983" rx="3.989" ry="118.36"/>
	</g>
	<g>
		<path fill="#31353E" d="M807.205,454.205c-1.142,1.884-9.414-1.044-26.517-11.417c-17.104-10.373-23.523-16.355-22.381-18.239
			s9.414,1.044,26.517,11.417C801.928,446.34,808.348,452.322,807.205,454.205z"/>
	</g>
	<g>
		<ellipse fill="#31353E" cx="203.184" cy="718.337" rx="3.989" ry="28.953"/>
	</g>
	<g>
		<path fill="#31353E" d="M473.091,645.54c-1.107,1.905-41.235-19.341-132.584-72.408c-91.349-53.066-129.683-77.4-128.576-79.305
			c1.107-1.905,41.235,19.341,132.584,72.407S474.198,643.635,473.091,645.54z"/>
	</g>
	<g>
		<path fill="#31353E" d="M473.091,908.201c-1.107,1.905-41.235-19.342-132.584-72.408s-129.683-77.401-128.576-79.305
			c1.107-1.905,41.235,19.341,132.584,72.407C435.863,881.961,474.198,906.296,473.091,908.201z"/>
	</g>
	<g>
		<path fill="#31353E" d="M357.886,770.143c-1.107,1.904-41.235-19.342-132.584-72.408S95.619,620.334,96.726,618.429
			c1.107-1.905,41.235,19.342,132.584,72.408C320.658,743.903,358.992,768.238,357.886,770.143z"/>
	</g>
	<g>
		<path fill="#31353E" d="M1019.467,329.871c-1.107,1.905-41.235-19.341-132.583-72.408
			c-91.349-53.066-129.683-77.401-128.576-79.305c1.107-1.905,41.235,19.341,132.583,72.407S1020.574,327.966,1019.467,329.871z"/>
	</g>
	<g>
		<path fill="#31353E" d="M1144.936,329.871c-1.107,1.905-41.235-19.341-132.584-72.408
			c-91.349-53.066-129.683-77.401-128.576-79.305c1.107-1.905,41.235,19.341,132.583,72.407
			C1107.708,303.632,1146.043,327.966,1144.936,329.871z"/>
	</g>
	<g>
		<path fill="#31353E" d="M421.631,609.4c-1.097-1.91,46.352-31.227,158.906-95.883c112.554-64.657,161.782-90.877,162.879-88.967
			s-46.352,31.227-158.906,95.884S422.728,611.31,421.631,609.4z"/>
	</g>
	<g>
		<path fill="#31353E" d="M211.931,484.714c-1.1-1.909,78.732-49.977,266.693-158.299
			C666.586,218.094,748.201,173.12,749.301,175.028c1.1,1.909-78.732,49.977-266.693,158.299
			C294.646,441.648,213.031,486.622,211.931,484.714z"/>
	</g>
	<g>
		<path fill="#31353E" d="M50.011,488.937c-1.1-1.909,78.732-49.977,266.693-158.299
			c187.961-108.321,269.577-153.295,270.677-151.387c1.1,1.909-78.732,49.977-266.693,158.299
			C132.726,445.872,51.111,490.846,50.011,488.937z"/>
	</g>
	<g>
		<path fill="#31353E" d="M495.507,639.556c-1.1-1.908,75.95-48.374,257.433-152.962s260.316-147.958,261.416-146.05
			s-75.95,48.374-257.433,152.962S496.607,641.464,495.507,639.556z"/>
	</g>
	<g>
		<path fill="#31353E" d="M500.618,901.545c-1.1-1.909,75.95-48.374,257.433-152.962s260.316-147.959,261.416-146.05
			c1.1,1.908-75.95,48.373-257.433,152.961C580.551,860.084,501.718,903.453,500.618,901.545z"/>
	</g>
	<g>
		<path fill="#31353E" d="M1137.672,464.573c0.281,0.473-5.865,4.736-18.977,13.083c-13.112,8.346-33.189,20.777-60.77,37.586
			c-55.161,33.618-140.335,84.751-259.823,155.754c-41.161,24.394-78.28,46.393-111.484,66.071
			c-34.241,20.16-64.445,37.942-90.74,53.424c-9.307-12.207-17.973-23.573-26.014-34.119c-7.445-9.829-14.31-18.892-20.61-27.21
			c-12.573-16.655-22.831-30.364-30.889-41.264c-8.058-10.901-13.915-18.993-17.687-24.415c-3.772-5.423-5.457-8.175-5.171-8.396
			c0.286-0.221,2.525,2.103,6.823,7.119c4.298,5.015,10.655,12.721,19.175,23.265c8.52,10.543,19.204,23.923,32.156,40.284
			c12.382,15.728,26.987,34.279,43.922,55.79c24.666-14.801,52.997-31.801,85.116-51.075
			c33.157-19.756,70.225-41.842,111.329-66.332c119.488-71.004,205.117-121.369,261.016-153.746
			c27.949-16.189,48.466-27.88,62.065-35.407C1130.708,467.461,1137.391,464.1,1137.672,464.573z"/>
	</g>
	<path fill="#F7D7A6" d="M74.983,488.528l120.689-9.156c4.737-0.359,9.335-1.771,13.458-4.133L702.346,192.7
		c3.211-1.839,1.822-6.749-1.877-6.634l-108.563,3.381c-2.971,0.093-5.873,0.92-8.447,2.408L74.272,486.228
		C73.135,486.885,73.674,488.627,74.983,488.528z"/>
	<path fill="#F7D7A6" d="M787.405,188.29l229.384,131.59c1.76,1.01,3.736,1.584,5.763,1.676l95.153,4.293
		c2.237,0.101,3.089-2.879,1.138-3.976L887.097,191.515c-0.736-0.414-1.557-0.652-2.401-0.695l-96.588-4.925
		C786.761,185.827,786.235,187.618,787.405,188.29z"/>
</g>
</svg>
